<?xml version="1.0" encoding="utf-8"?>
<!-- Svg Vector Icons : http://www.sfont.cn -->
<!DOCTYPE svg PUBLIC "-//W3C//DTD SVG 1.1//EN" "http://www.w3.org/Graphics/SVG/1.1/DTD/svg11.dtd">
<svg version="1.1" xmlns="http://www.w3.org/2000/svg" xmlns:xlink="http://www.w3.org/1999/xlink" fill="#11cd6e" x="0px" y="0px" viewBox="0 0 1000 1000" enable-background="new 0 0 1000 1000" xml:space="preserve">
<metadata> Svg Vector Icons : http://www.sfont.cn </metadata>
<g><g transform="translate(0.000000,511.000000) scale(0.100000,-0.100000)"><path d="M4564.5,4987.6C2488,4803.3,737.1,3302.2,239.4,1283C10.1,347.1,65.3-693.2,393-1577.9c559.1-1517.5,1843.1-2676.6,3397.4-3067.7c446.4-112.6,700.4-141.3,1208.2-141.3c512,0,770,30.7,1210.3,141.3C7947.6-4203.3,9321.8-2825,9751.8-1092.5c317.4,1279.9,120.8,2604.9-550.9,3721C8230.3,4238.1,6430.2,5153.5,4564.5,4987.6z M5400.1,4211.5c767.9-77.8,1505.2-368.6,2117.5-837.6c172-131.1,544.7-495.6,692.2-677.9c999.4-1236.9,1196-2949,505.8-4380.4c-993.2-2054-3454.8-2916.2-5506.8-1927.1C1150.7-2616.1,286.5-134.1,1290,1907.6c215,438.3,407.5,710.6,749.5,1062.9c538.6,555,1173.4,929.7,1886.1,1118.1C4415,4217.6,4920.9,4258.6,5400.1,4211.5z"/><path d="M4845.1,2970.5c-84-32.8-192.5-127-241.7-210.9l-55.3-94.2l-6.1-1048.5l-6.2-1048.5l-1048.5-6.2L2438.8,556l-98.3-57.3c-65.5-38.9-116.7-90.1-159.7-163.8c-55.3-96.3-61.4-120.8-55.3-254c8.2-186.3,75.8-292.8,239.6-378.9l108.5-57.3h1032.1h1032.1v-1017.8c2.1-1095.6,2.1-1101.8,110.6-1243c116.7-153.6,380.9-208.9,559.1-118.8c102.4,53.3,196.6,163.8,229.4,268.3c14.3,55.3,22.5,393.2,22.5,1095.6v1015.7h1015.7c702.4,0,1040.3,8.2,1095.6,22.5c272.4,81.9,401.4,423.9,251.9,667.6c-67.6,108.5-159.7,180.2-272.4,210.9c-45,12.3-469,20.5-1081.3,20.5H5459.5v1030.1v1030.1l-55.3,112.6c-84,163.8-192.5,231.4-380.9,237.5C4941.4,2978.7,4861.5,2976.6,4845.1,2970.5z"/></g></g>
</svg>