<svg xmlns="http://www.w3.org/2000/svg" viewBox="0 0 29.34 29.33"><defs><style>.a{fill:#77c17b;}</style></defs><title>search-icon</title><path class="a" d="M13.45,24.3A10.36,10.36,0,0,1,3,14,10.36,10.36,0,0,1,13.45,3.75,10.36,10.36,0,0,1,23.89,14,10.36,10.36,0,0,1,13.45,24.3Zm16.71,5.32-7.57-7.45A12,12,0,0,0,25.79,14,12.25,12.25,0,0,0,13.45,1.88,12.25,12.25,0,0,0,1.11,14,12.24,12.24,0,0,0,13.45,26.17a12.4,12.4,0,0,0,7.77-2.71l7.6,7.48a1,1,0,0,0,1.34,0,.92.92,0,0,0,0-1.32Z" transform="translate(-1.11 -1.88)"/></svg>